<svg xmlns="http://www.w3.org/2000/svg" xmlns:xlink="http://www.w3.org/1999/xlink" version="1.0" x="0px" y="0px" viewBox="0 0 100 100" enable-background="new 0 0 100 100" xml:space="preserve"><g><path d="M64.6014404,37.3324585v6.9138794h-9.0264893V28.8659058L43.4590454,16.75H26.8643188v14.9259644H13.3994141v58.3783569   h74.2483521V28.819519L64.6014404,37.3324585z M24,75.6739502h-4v-4h4V75.6739502z M24,67.4335938h-4v-4h4V67.4335938z    M24,59.1932373h-4v-4h4V59.1932373z M24,50.9529419h-4v-4h4V50.9529419z M24,42.7125854h-4v-4h4V42.7125854z M33,67.4335938h-4v-4   h4V67.4335938z M33,59.1932373h-4v-4h4V59.1932373z M33,50.9529419h-4v-4h4V50.9529419z M33,42.7125854h-4v-4h4V42.7125854z    M38.1418457,28.7216797h-4v-4h4V28.7216797z M44,31.47229h4v4h-4V31.47229z M44,39.7125854h4v4h-4V39.7125854z    M51.333313,71.4806519h-4v-4h4V71.4806519z M51.333313,63.2402954h-4v-4h4V63.2402954z M51.333313,55h-4v-4h4V55z    M60.333313,79.7210083h-4v-4h4V79.7210083z M60.333313,71.4806519h-4v-4h4V71.4806519z M60.333313,63.2402954h-4v-4h4V63.2402954z    M60.333313,55h-4v-4h4V55z M80.1245728,62.6752319h-4v-4h4V62.6752319z M80.1245728,54.4348755h-4v-4h4V54.4348755z    M80.1245728,46.1945801h-4v-4h4V46.1945801z"></path></g></svg>